# xmcd CD database file
#
# Track frame offsets:
#	150
#	15060
#	30361
#	47360
#	63321
#	76118
#	93513
#	110369
#	125862
#	144155
#	162701
#	179618
#	194760
#	205741
#	229172
#	245746
#	265136
#	284146
#	300015
#	323499
#	344544
#
# Disc length: 4774 seconds
#
# Revision: 1
# Processed by: cddbd v1.4PL0 Copyright (c) Steve Scherf et al.
# Submitted via: jetAudio 5
#
DISCID=2212a415
DTITLE=Billy Ray Cyrus - Shot Full Of Love-Some Gave All-Trail Of Tears
DYEAR=1900
DGENRE=
TTITLE0=Busy Man
TTITLE1=Missing You
TTITLE2=Could've Been Me
TTITLE3=Wher'm I Gonna Live
TTITLE4=These Boots Are Made For Walkin'
TTITLE5=Someday,Somewhere, Somehow
TTITLE6=Never Thought I'd Fall In Love With You
TTITLE7=Ain't No Good Goodbye
TTITLE8=I'm So Miserable
TTITLE9=Some Gave All
TTITLE10=Trail Of Tears
TTITLE11=Truth Is I Lied
TTITLE12=Tenntucky
TTITLE13=Call Me Daddy
TTITLE14=Sing Me Back Home
TTITLE15=Three Little Words
TTITLE16=Harper Valley P.T.A.
TTITLE17=I Am Here Now
TTITLE18=Need A Little Help
TTITLE19=Should I Stay
TTITLE20=Crazy Mama
EXTD=
EXTT0=
EXTT1=
EXTT2=
EXTT3=
EXTT4=
EXTT5=
EXTT6=
EXTT7=
EXTT8=
EXTT9=
EXTT10=
EXTT11=
EXTT12=
EXTT13=
EXTT14=
EXTT15=
EXTT16=
EXTT17=
EXTT18=
EXTT19=
EXTT20=
PLAYORDER=
